<svg height="1438" width="720" xmlns="http://www.w3.org/2000/svg">
<rect height="1438" fill="#555" width="720"></rect>
<text fill="#7f7" font-family="Courier New" font-size="12" xml:space="preserve">
<tspan x="10" y="26">└─┬ gulp-react@3.1.0 </tspan>
<tspan x="10" y="42">  ├─┬ gulp-util@3.0.8 </tspan>
<tspan x="10" y="58">  │ ├── array-differ@1.0.0 </tspan>
<tspan x="10" y="74">  │ ├── array-uniq@1.0.3 </tspan>
<tspan x="10" y="90">  │ ├── beeper@1.1.1 </tspan>
<tspan x="10" y="106">  │ ├─┬ chalk@1.1.3 </tspan>
<tspan x="10" y="122">  │ │ ├── ansi-styles@2.2.1 </tspan>
<tspan x="10" y="138">  │ │ ├── escape-string-regexp@1.0.5 </tspan>
<tspan x="10" y="154">  │ │ ├─┬ has-ansi@2.0.0 </tspan>
<tspan x="10" y="170">  │ │ │ └── ansi-regex@2.1.1 </tspan>
<tspan x="10" y="186">  │ │ ├── strip-ansi@3.0.1 </tspan>
<tspan x="10" y="202">  │ │ └── supports-color@2.0.0 </tspan>
<tspan x="10" y="218">  │ ├── dateformat@2.0.0 </tspan>
<tspan x="10" y="234">  │ ├─┬ fancy-log@1.3.0 </tspan>
<tspan x="10" y="250">  │ │ └── time-stamp@1.0.1 </tspan>
<tspan x="10" y="266">  │ ├─┬ gulplog@1.0.0 </tspan>
<tspan x="10" y="282">  │ │ └── glogg@1.0.0 </tspan>
<tspan x="10" y="298">  │ ├─┬ has-gulplog@0.1.0 </tspan>
<tspan x="10" y="314">  │ │ └── sparkles@1.0.0 </tspan>
<tspan x="10" y="330">  │ ├── lodash._reescape@3.0.0 </tspan>
<tspan x="10" y="346">  │ ├── lodash._reevaluate@3.0.0 </tspan>
<tspan x="10" y="362">  │ ├── lodash._reinterpolate@3.0.0 </tspan>
<tspan x="10" y="378">  │ ├─┬ lodash.template@3.6.2 </tspan>
<tspan x="10" y="394">  │ │ ├── lodash._basecopy@3.0.1 </tspan>
<tspan x="10" y="410">  │ │ ├── lodash._basetostring@3.0.1 </tspan>
<tspan x="10" y="426">  │ │ ├── lodash._basevalues@3.0.0 </tspan>
<tspan x="10" y="442">  │ │ ├── lodash._isiterateecall@3.0.9 </tspan>
<tspan x="10" y="458">  │ │ ├─┬ lodash.escape@3.2.0 </tspan>
<tspan x="10" y="474">  │ │ │ └── lodash._root@3.0.1 </tspan>
<tspan x="10" y="490">  │ │ ├─┬ lodash.keys@3.1.2 </tspan>
<tspan x="10" y="506">  │ │ │ ├── lodash._getnative@3.9.1 </tspan>
<tspan x="10" y="522">  │ │ │ ├── lodash.isarguments@3.1.0 </tspan>
<tspan x="10" y="538">  │ │ │ └── lodash.isarray@3.0.4 </tspan>
<tspan x="10" y="554">  │ │ ├── lodash.restparam@3.6.1 </tspan>
<tspan x="10" y="570">  │ │ └── lodash.templatesettings@3.1.1 </tspan>
<tspan x="10" y="586">  │ ├── minimist@1.2.0 </tspan>
<tspan x="10" y="602">  │ ├─┬ multipipe@0.1.2 </tspan>
<tspan x="10" y="618">  │ │ └─┬ duplexer2@0.0.2 </tspan>
<tspan x="10" y="634">  │ │   └─┬ readable-stream@1.1.14 </tspan>
<tspan x="10" y="650">  │ │     └── isarray@0.0.1 </tspan>
<tspan x="10" y="666">  │ ├── object-assign@3.0.0 </tspan>
<tspan x="10" y="682">  │ ├── replace-ext@0.0.1 </tspan>
<tspan x="10" y="698">  │ └─┬ vinyl@0.5.3 </tspan>
<tspan x="10" y="714">  │   ├── clone@1.0.2 </tspan>
<tspan x="10" y="730">  │   └── clone-stats@0.0.1 </tspan>
<tspan x="10" y="746">  ├── object-assign@4.1.1 </tspan>
<tspan x="10" y="762">  ├─┬ react-tools@0.13.3 </tspan>
<tspan x="10" y="778">  │ ├─┬ commoner@0.10.8 </tspan>
<tspan x="10" y="794">  │ │ ├─┬ commander@2.9.0 </tspan>
<tspan x="10" y="810">  │ │ │ └── graceful-readlink@1.0.1 </tspan>
<tspan x="10" y="826">  │ │ ├─┬ detective@4.5.0 </tspan>
<tspan x="10" y="842">  │ │ │ ├── acorn@4.0.11 </tspan>
<tspan x="10" y="858">  │ │ │ └── defined@1.0.0 </tspan>
<tspan x="10" y="874">  │ │ ├─┬ glob@5.0.15 </tspan>
<tspan x="10" y="890">  │ │ │ ├─┬ inflight@1.0.6 </tspan>
<tspan x="10" y="906">  │ │ │ │ └── wrappy@1.0.2 </tspan>
<tspan x="10" y="922">  │ │ │ ├─┬ minimatch@3.0.3 </tspan>
<tspan x="10" y="938">  │ │ │ │ └─┬ brace-expansion@1.1.6 </tspan>
<tspan x="10" y="954">  │ │ │ │   ├── balanced-match@0.4.2 </tspan>
<tspan x="10" y="970">  │ │ │ │   └── concat-map@0.0.1 </tspan>
<tspan x="10" y="986">  │ │ │ ├── once@1.4.0 </tspan>
<tspan x="10" y="1002">  │ │ │ └── path-is-absolute@1.0.1 </tspan>
<tspan x="10" y="1018">  │ │ ├── graceful-fs@4.1.11 </tspan>
<tspan x="10" y="1034">  │ │ ├── iconv-lite@0.4.15 </tspan>
<tspan x="10" y="1050">  │ │ ├─┬ mkdirp@0.5.1 </tspan>
<tspan x="10" y="1066">  │ │ │ └── minimist@0.0.8 </tspan>
<tspan x="10" y="1082">  │ │ ├── private@0.1.7 </tspan>
<tspan x="10" y="1098">  │ │ ├── q@1.5.0 </tspan>
<tspan x="10" y="1114">  │ │ └─┬ recast@0.11.23 </tspan>
<tspan x="10" y="1130">  │ │   ├── ast-types@0.9.6 </tspan>
<tspan x="10" y="1146">  │ │   └── esprima@3.1.3 </tspan>
<tspan x="10" y="1162">  │ └─┬ jstransform@10.1.0 </tspan>
<tspan x="10" y="1178">  │   ├── base62@0.1.1 </tspan>
<tspan x="10" y="1194">  │   ├── esprima-fb@13001.1001.0-dev-harmony-fb </tspan>
<tspan x="10" y="1210">  │   └─┬ source-map@0.1.31 </tspan>
<tspan x="10" y="1226">  │     └── amdefine@1.0.1 </tspan>
<tspan x="10" y="1242">  ├─┬ through2@2.0.3 </tspan>
<tspan x="10" y="1258">  │ ├─┬ readable-stream@2.2.6 </tspan>
<tspan x="10" y="1274">  │ │ ├── buffer-shims@1.0.0 </tspan>
<tspan x="10" y="1290">  │ │ ├── core-util-is@1.0.2 </tspan>
<tspan x="10" y="1306">  │ │ ├── inherits@2.0.3 </tspan>
<tspan x="10" y="1322">  │ │ ├── isarray@1.0.0 </tspan>
<tspan x="10" y="1338">  │ │ ├── process-nextick-args@1.0.7 </tspan>
<tspan x="10" y="1354">  │ │ ├── string_decoder@0.10.31 </tspan>
<tspan x="10" y="1370">  │ │ └── util-deprecate@1.0.2 </tspan>
<tspan x="10" y="1386">  │ └── xtend@4.0.1 </tspan>
<tspan x="10" y="1402">  └─┬ vinyl-sourcemaps-apply@0.2.1 </tspan>
<tspan x="10" y="1418">    └── source-map@0.5.6</tspan>
</text>
</svg>
